<?xml version="1.0" encoding="UTF-8"?>
<svg width="661px" height="301px" viewBox="0 0 661 301" version="1.1" xmlns="http://www.w3.org/2000/svg" xmlns:xlink="http://www.w3.org/1999/xlink">
    <!-- Generator: Sketch 42 (36781) - http://www.bohemiancoding.com/sketch -->
    <title>Untitled</title>
    <desc>Created with Sketch.</desc>
    <defs></defs>
    <g id="Page-1" stroke="none" stroke-width="1" fill="none" fill-rule="evenodd">
        <g id="hslu" fill-rule="nonzero">
            <g id="g10" transform="translate(330.638690, 150.369370) scale(-1, 1) rotate(-180.000000) translate(-330.638690, -150.369370) translate(0.638690, 0.369370)">
                <g id="g64" transform="translate(0.619792, 0.256805)" fill="#6B95AA">
                    <path d="M192.960271,3.1438101 L192.960271,14.9563103 L200.897771,14.9563103 L200.897771,68.487561 L244.929021,68.487561 L244.929021,56.6750608 L213.272771,56.6750608 L213.272771,41.6750606 L236.991521,41.6750606 L236.991521,29.8938105 L213.272771,29.8938105 L213.272771,14.9563103 L244.929021,14.9563103 L244.929021,3.1438101 L192.960271,3.1438101 Z M4.74151804,3.2688101 L4.74151804,68.581311 L48.7727687,68.581311 L48.7727687,56.7688108 L17.1165182,56.7688108 L17.1165182,3.2688101 L4.74151804,3.2688101 Z M61.0852688,3.2688101 L61.0852688,53.3938108 C61.0852688,55.3566008 61.7838188,57.0668208 63.2102689,58.4875609 L71.147769,66.425061 C72.568513,67.845801 74.304269,68.581311 76.272769,68.581311 L95.7102693,68.581311 C97.6730643,68.581311 99.4145254,67.845801 100.835269,66.425061 L108.772769,58.4875609 C110.19351,57.0668208 110.89777,55.3566008 110.89777,53.3938108 L110.89777,3.2688101 L98.5227693,3.2688101 L98.5227693,51.4563108 C98.5227693,51.8557208 98.3564263,52.2476508 98.0540193,52.5500608 L94.2727693,56.3000608 C93.9304213,56.6367008 93.6297773,56.7688108 93.1790193,56.7688108 L78.7727691,56.7688108 C78.3220111,56.7688108 78.0270731,56.6367008 77.6790191,56.3000608 L73.929019,52.5500608 C73.626612,52.2476508 73.429019,51.8557208 73.429019,51.4563108 L73.429019,3.2688101 L61.0852688,3.2688101 Z M129.05402,3.2688101 L129.05402,15.0500603 L164.89777,15.0500603 L164.89777,20.9875603 C164.89777,21.5752604 164.49934,22.0772704 163.99152,22.3625604 C163.98552,22.3685604 131.64777,40.8938106 131.64777,40.8938106 C129.10869,42.3487906 127.51733,44.5691807 127.46027,47.4563107 L127.46027,68.581311 L177.27277,68.581311 L177.27277,56.7688108 L139.83527,56.7688108 L139.83527,50.8625608 C139.83527,50.2691608 140.2337,49.7473107 140.74152,49.4563107 C140.74752,49.4563107 173.08527,31.0188105 173.08527,31.0188105 C175.64147,29.5638305 177.21001,27.3746904 177.27277,24.4875604 L177.27277,3.2688101 L129.05402,3.2688101 Z M259.179022,3.2688101 L259.179022,15.0500603 L267.147772,15.0500603 L267.147772,68.581311 L279.522772,68.581311 L279.522772,43.1125607 L286.210272,43.1125607 C286.775142,43.1125607 287.214662,43.3748507 287.522772,43.8313107 C287.534172,43.8598107 306.741522,68.581311 306.741522,68.581311 L310.460272,68.581311 L320.647772,68.581311 L320.647772,56.8000608 L312.679022,56.8000608 C308.388262,51.3224908 302.385222,43.6089607 301.991522,43.1125607 L303.522772,43.1125607 C305.422802,43.1125607 307.071042,42.4392906 308.429022,41.0813106 L314.835272,34.6750605 C316.278842,33.2372005 316.991522,31.5726305 316.991522,29.5813105 L316.991522,16.8000603 C316.991522,14.8030303 316.278842,13.1441702 314.835272,11.7063102 L308.429022,5.30006013 C307.071042,3.94208011 305.422802,3.2688101 303.522772,3.2688101 L259.179022,3.2688101 Z M337.179023,3.2688101 L337.179023,68.581311 L349.272773,68.581311 L349.272773,20.0188103 C350.636463,23.2140604 369.929023,68.581311 369.929023,68.581311 L387.022773,68.581311 L387.022773,3.2688101 L374.929023,3.2688101 L374.929023,51.8313108 C373.571043,48.6360607 354.272773,3.2688101 354.272773,3.2688101 L337.179023,3.2688101 Z M279.522772,15.0500603 L300.929022,15.0500603 C301.379782,15.0500603 301.643472,15.1764603 301.991522,15.5188103 L304.116522,17.6438103 C304.458872,17.9861603 304.616522,18.2868003 304.616522,18.7375603 L304.616522,27.6438104 C304.616522,28.1002704 304.458872,28.4009204 304.116522,28.7375605 L301.991522,30.8625605 C301.643472,31.1992005 301.379782,31.3313105 300.929022,31.3313105 L279.522772,31.3313105 L279.522772,15.0500603 Z" id="path66" transform="translate(195.882146, 35.862561) scale(-1, 1) rotate(-180.000000) translate(-195.882146, -35.862561) "></path>
                </g>
                <g id="g96" transform="translate(2.879860, 98.234493)" fill="#415E6D">
                    <path d="M2.48144954,3.13487194 L2.48144954,68.4786228 L14.8564497,68.4786228 L14.8564497,41.6661225 L39.9502001,41.6661225 L39.9502001,68.4786228 L52.3252002,68.4786228 L52.3252002,3.13487194 L39.9502001,3.13487194 L39.9502001,29.8536223 L14.8564497,29.8536223 L14.8564497,3.13487194 L2.48144954,3.13487194 Z M86.8877007,3.13487194 C84.9192007,3.13487194 83.1834447,3.86467195 81.7627006,5.29112197 L73.8252005,13.2286221 C72.3987505,14.6493621 71.7002005,16.3538721 71.7002005,18.3223721 L71.7002005,53.2598726 C71.7002005,55.2283727 72.3987505,56.9641327 73.8252005,58.3848727 L81.7627006,66.3223728 C83.1834447,67.7488228 84.9192007,68.4786228 86.8877007,68.4786228 L112.137701,68.4786228 C114.106201,68.4786228 115.841961,67.7488228 117.262701,66.3223728 L125.200201,58.3848727 C126.620941,56.9641327 127.325201,55.2283727 127.325201,53.2598726 L127.325201,18.3223721 C127.325201,16.3538721 126.620941,14.6493621 125.200201,13.2286221 L117.262701,5.29112197 C115.841961,3.86467195 114.100491,3.13487194 112.137701,3.13487194 L86.8877007,3.13487194 Z M159.075202,3.13487194 C157.112412,3.13487194 155.370942,3.86467195 153.950202,5.29112197 L146.012702,13.2286221 C144.591962,14.6493621 143.887702,16.3538721 143.887702,18.3223721 L143.887702,53.2911226 C143.887702,55.2596227 144.591962,56.9641327 146.012702,58.3848727 L153.950202,66.3223728 C155.370942,67.7431128 157.112412,68.4786228 159.075202,68.4786228 L180.075202,68.4786228 C182.043702,68.4786228 183.779462,67.7431128 185.200202,66.3223728 L193.887702,57.6348727 L185.481452,49.3536226 L178.637702,56.1973727 C178.295352,56.5397227 177.994712,56.6661227 177.543952,56.6661227 L161.575202,56.6661227 C161.130152,56.6661227 160.855052,56.5397227 160.512702,56.1973727 L156.731452,52.4161226 C156.429042,52.1137126 156.262702,51.7473226 156.262702,51.3536226 L156.262702,20.2598722 C156.262702,19.8661722 156.429042,19.4997822 156.731452,19.1973722 L160.512702,15.4161221 C160.855052,15.0737721 161.130152,14.9473721 161.575202,14.9473721 L177.543952,14.9473721 C177.994712,14.9473721 178.295352,15.0737721 178.637702,15.4161221 L185.481452,22.2598722 L193.887702,13.9786221 L185.200202,5.29112197 C183.779462,3.86467195 182.043702,3.13487194 180.075202,3.13487194 L159.075202,3.13487194 Z M209.012702,3.13487194 L209.012702,68.4786228 L221.387703,68.4786228 L221.387703,41.6661225 L246.481453,41.6661225 L246.481453,68.4786228 L258.856453,68.4786228 L258.856453,3.13487194 L246.481453,3.13487194 L246.481453,29.8536223 L221.387703,29.8536223 L221.387703,3.13487194 L209.012702,3.13487194 Z M291.981454,3.13487194 C290.012954,3.13487194 288.308444,3.87038195 286.887703,5.29112197 L278.950203,13.2286221 C277.529463,14.6550721 276.793953,16.3595821 276.793953,18.3223721 L276.793953,31.0098723 C276.890953,34.9525824 279.893903,38.4395524 283.825203,38.9473724 L316.981454,43.5723725 C317.797384,43.6522725 318.481454,44.3874125 318.481454,45.1348725 L318.481454,51.3536226 C318.481454,51.7530326 318.315114,52.1080126 318.012704,52.4161226 L314.231454,56.1973727 C313.889104,56.5397227 313.588464,56.6661227 313.137704,56.6661227 L291.168954,56.6661227 C290.718194,56.6661227 290.443094,56.5397227 290.106454,56.1973727 L283.325203,49.4473726 L275.043953,57.8223727 L283.543953,66.3223728 C284.964693,67.7488228 286.700453,68.4473728 288.668954,68.4473728 L315.668954,68.4473728 C317.631744,68.4473728 319.341964,67.7488228 320.762704,66.3223728 L328.700204,58.3848727 C330.126654,56.9584227 330.799394,55.2283727 330.856454,53.2598726 L330.856454,40.6036225 C330.856454,36.6666224 327.787754,33.1682324 323.856454,32.6661223 L290.606454,28.0098723 C289.819054,27.9299723 289.168954,27.2290623 289.168954,26.4473723 L289.168954,20.2598722 C289.168954,19.8661722 289.335294,19.4685322 289.637704,19.1661222 L293.418954,15.4161221 C293.761304,15.0680721 294.061944,14.9473721 294.512704,14.9473721 L313.137704,14.9473721 C313.582754,14.9473721 313.889104,15.0680721 314.231454,15.4161221 L320.981454,22.1661222 L329.262704,13.7911221 L320.762704,5.29112197 C319.341964,3.87038195 317.637454,3.13487194 315.668954,3.13487194 L291.981454,3.13487194 Z M361.168955,3.13487194 C359.200455,3.13487194 357.495944,3.86467195 356.075204,5.29112197 L348.137704,13.2286221 C346.711254,14.6493621 345.981454,16.3538721 345.981454,18.3223721 L345.981454,53.2911226 C345.981454,55.2596227 346.711254,56.9641327 348.137704,58.3848727 L356.075204,66.3223728 C357.495944,67.7431128 359.200455,68.4786228 361.168955,68.4786228 L382.168955,68.4786228 C384.131745,68.4786228 385.873215,67.7431128 387.293955,66.3223728 L395.981455,57.6348727 L387.606455,49.3536226 L380.762705,56.1973727 C380.420355,56.5397227 380.125415,56.6661227 379.668955,56.6661227 L363.700205,56.6661227 C363.255155,56.6661227 362.954505,56.5397227 362.606455,56.1973727 L358.825204,52.4161226 C358.517094,52.1137126 358.356454,51.7473226 358.356454,51.3536226 L358.356454,20.2598722 C358.356454,19.8661722 358.517094,19.4997822 358.825204,19.1973722 L362.606455,15.4161221 C362.954505,15.0737721 363.255155,14.9473721 363.700205,14.9473721 L379.668955,14.9473721 C380.119715,14.9473721 380.420355,15.0737721 380.762705,15.4161221 L387.606455,22.2598722 L395.981455,13.9786221 L387.293955,5.29112197 C385.873215,3.86467195 384.131745,3.13487194 382.168955,3.13487194 L361.168955,3.13487194 Z M411.106455,3.13487194 L411.106455,68.4786228 L423.481455,68.4786228 L423.481455,41.6661225 L448.575206,41.6661225 L448.575206,68.4786228 L460.950206,68.4786228 L460.950206,3.13487194 L448.575206,3.13487194 L448.575206,29.8536223 L423.481455,29.8536223 L423.481455,3.13487194 L411.106455,3.13487194 Z M481.731456,3.13487194 L481.731456,53.2598726 C481.731456,55.2283727 482.461256,56.9641327 483.887706,58.3848727 L491.825206,66.3223728 C493.240246,67.7431128 494.956166,68.4786228 496.918956,68.4786228 L516.387707,68.4786228 C518.356207,68.4786228 520.066417,67.7431128 521.481457,66.3223728 C521.481457,66.3223728 529.418957,58.3905827 529.418957,58.3848727 C530.839697,56.9641327 531.575207,55.2283727 531.575207,53.2598726 L531.575207,3.13487194 L519.200207,3.13487194 L519.200207,51.3536226 C519.200207,51.7473226 519.033867,52.1137126 518.731457,52.4161226 L514.950207,56.1973727 C514.602157,56.5397227 514.307217,56.6661227 513.856457,56.6661227 L499.450206,56.6661227 C498.999446,56.6661227 498.698806,56.5397227 498.356456,56.1973727 L494.575206,52.4161226 C494.278506,52.1137126 494.106456,51.7473226 494.106456,51.3536226 L494.106456,3.13487194 L481.731456,3.13487194 Z M552.356457,3.13487194 L552.356457,68.4786228 L596.387708,68.4786228 L596.387708,56.6661227 L564.731457,56.6661227 L564.731457,3.13487194 L552.356457,3.13487194 Z M603.575208,3.13487194 L603.575208,14.9473721 L611.512708,14.9473721 L611.512708,68.4786228 L655.543959,68.4786228 L655.543959,56.6661227 L623.887708,56.6661227 L623.887708,41.6661225 L647.606459,41.6661225 L647.606459,29.8536223 L623.887708,29.8536223 L623.887708,14.9473721 L655.543959,14.9473721 L655.543959,3.13487194 L603.575208,3.13487194 Z M89.3877008,14.9473721 L109.637701,14.9473721 C110.082751,14.9473721 110.389101,15.0794821 110.731451,15.4161221 L114.481451,19.1973722 C114.783861,19.4997822 114.950201,19.8661722 114.950201,20.2598722 L114.950201,51.3536226 C114.950201,51.7473226 114.783861,52.1137126 114.481451,52.4161226 L110.731451,56.1973727 C110.389101,56.5397227 110.082751,56.6661227 109.637701,56.6661227 L89.3877008,56.6661227 C88.9369427,56.6661227 88.6675487,56.5397227 88.3252007,56.1973727 L84.5439507,52.4161226 C84.2415437,52.1137126 84.0752007,51.7473226 84.0752007,51.3536226 L84.0752007,20.2598722 C84.0752007,19.8661722 84.2415437,19.4997822 84.5439507,19.1973722 L88.3252007,15.4161221 C88.6675487,15.0794821 88.9369427,14.9473721 89.3877008,14.9473721 Z" id="path98" transform="translate(329.012704, 35.806747) scale(-1, 1) rotate(-180.000000) translate(-329.012704, -35.806747) "></path>
                </g>
                <g id="g176" transform="translate(5.105117, 259.917991)" fill="#415E6D">
                    <path d="M17.1173955,11.411597 L17.1173955,12.9863974 C17.1173955,13.4485671 16.9233984,13.6026236 16.3870533,13.6026236 L6.74425383,13.6026236 L6.74425383,36.414406 C6.74425383,36.9906917 6.51602189,37.2189236 5.97967683,37.2189236 L3.90276617,37.2189236 C3.4063617,37.2189236 3.17242397,36.9108105 3.17242397,36.414406 L3.17242397,11.6055941 C3.17242397,10.9893679 3.4405965,10.761136 3.94270676,10.761136 L16.4669345,10.761136 C16.9233984,10.761136 17.1173955,10.9094867 17.1173955,11.411597 L17.1173955,11.411597 Z M36.9336337,11.6055941 L36.9336337,28.5404041 C36.9336337,29.0767492 36.7054018,29.3106869 36.2032915,29.3106869 L34.4002592,29.3106869 C33.8981489,29.3106869 33.6699169,29.0767492 33.6699169,28.5404041 L33.6699169,15.4455965 C32.4374645,14.2930252 30.2863784,13.1746887 28.5974621,13.1746887 C25.5277425,13.1746887 24.9115163,15.0975428 24.9115163,17.8249145 L24.9115163,28.5404041 C24.9115163,29.0767492 24.6433437,29.3106869 24.1469393,29.3106869 L22.4180823,29.3106869 C21.915972,29.3106869 21.6477995,29.0767492 21.6477995,28.5404041 L21.6477995,17.3228042 C21.6477995,13.2203351 23.2625405,10.3731417 27.6788285,10.3731417 C29.9040899,10.3731417 31.9810006,11.1833651 33.7497981,12.6782843 L33.7840329,11.4914782 C33.7840329,11.0236027 34.0522054,10.761136 34.5143751,10.761136 L36.1633509,10.761136 C36.7054018,10.761136 36.9336337,11.0236027 36.9336337,11.6055941 L36.9336337,11.6055941 Z M56.9039284,11.9878826 C56.9039284,12.1019986 56.8639879,12.2560552 56.8297531,12.4101117 L56.4816994,13.4828019 C56.407524,13.7566802 56.293408,13.8707962 56.0994109,13.8707962 C56.0195297,13.8707962 55.9054137,13.8308556 55.7912977,13.790915 C54.5588453,13.2545699 53.1381014,12.8722814 51.4891257,12.8722814 C47.3809507,12.8722814 45.6920344,16.2501141 45.6920344,20.1699977 C45.6920344,24.466464 47.997177,27.1938357 51.6431822,27.1938357 C53.1381014,27.1938357 54.4447293,26.7716066 55.6372412,26.2352615 C55.7513571,26.1610861 55.9054137,26.1211455 55.9852949,26.1211455 C56.2135268,26.1211455 56.3276428,26.3151427 56.407524,26.5833152 L56.7156371,27.8100619 C56.7498719,27.9241779 56.7898125,28.004059 56.7898125,28.118175 C56.7898125,28.3521127 56.6756965,28.5004635 56.407524,28.6145795 C55.0609555,29.3106869 53.1381014,29.732916 51.4891257,29.732916 C45.731975,29.732916 42.3084959,25.6589759 42.3084959,20.0159411 C42.3084959,14.2930252 45.2298647,10.3731417 51.2608937,10.3731417 C53.0239855,10.3731417 54.792783,10.7211954 56.4417588,11.4914782 C56.7898125,11.6398289 56.9039284,11.7596507 56.9039284,11.9878826 L56.9039284,11.9878826 Z M76.7601072,20.6264616 L76.7601072,21.2826284 C76.7601072,23.7817681 76.1039404,26.0412644 74.5690806,27.6217705 C73.3023933,28.9226926 71.5393016,29.732916 69.348275,29.732916 C63.8193562,29.732916 60.4015829,25.5448599 60.4015829,20.0558817 C60.4015829,14.2530847 63.5511837,10.3731417 69.4623909,10.3731417 C71.2311885,10.3731417 73.6903876,10.7211954 75.3393634,11.4914782 C75.6474765,11.6398289 75.8015331,11.7596507 75.8015331,11.9878826 C75.8015331,12.0278232 75.8015331,12.1019986 75.7615925,12.1818798 L75.3393634,13.6026236 C75.265188,13.8707962 75.0711909,13.9449715 74.8771937,13.9449715 C74.7630777,13.9449715 74.6489618,13.9050309 74.4949052,13.8707962 C73.2282179,13.3686859 71.4594204,13.0605728 69.88462,13.0605728 C66.004677,13.0605728 63.9334722,15.9077662 63.8193562,19.5537715 L75.6075359,19.5537715 C76.6060507,19.5537715 76.7601072,19.7477686 76.7601072,20.6264616 L76.7601072,20.6264616 Z M73.5363311,21.7790329 L63.8935316,21.7790329 C64.2016447,24.6262263 66.004677,27.1938357 69.1942184,27.1938357 C72.1155872,27.1938357 73.5363311,24.9343394 73.5363311,22.3210837 L73.5363311,21.7790329 Z M91.0074861,28.9626332 L91.0074861,29.1566303 C91.0074861,29.3848623 90.9333107,29.5788594 90.699373,29.6188 C90.3170845,29.6929754 89.8549148,29.732916 89.5867422,29.732916 C87.5497722,29.732916 86.0947936,28.5803447 85.1704542,27.3136574 L85.1305136,28.6145795 C85.1305136,29.1166897 84.8623411,29.3106869 84.3659366,29.3106869 L82.7112551,29.3106869 C82.2547912,29.3106869 81.9809128,29.1166897 81.9809128,28.5404041 L81.9809128,11.5656536 C81.9809128,11.0236027 82.2148506,10.761136 82.7112551,10.761136 L84.5199932,10.761136 C85.0163976,10.761136 85.2503354,11.0692491 85.2503354,11.5656536 L85.2503354,24.6604611 C86.2431443,26.0812049 87.7437693,26.9656037 89.0903378,26.9656037 C89.4726263,26.9656037 89.8549148,26.9256631 90.2029685,26.8514877 L90.3170845,26.8514877 C90.5510222,26.8514877 90.699373,26.9656037 90.7393135,27.2337762 L91.0074861,28.9626332 L91.0074861,28.9626332 Z M111.017721,11.5656536 L111.017721,22.8574288 C111.017721,27.0397791 109.328805,29.732916 104.912517,29.732916 C102.68155,29.732916 100.382113,28.9226926 98.6133155,27.4277734 L98.5733749,28.6145795 C98.5733749,29.1166897 98.3052024,29.3106869 97.8430327,29.3106869 L96.1541163,29.3106869 C95.6177713,29.3106869 95.4237741,29.0767492 95.4237741,28.5404041 L95.4237741,11.525713 C95.4237741,11.0236027 95.6919466,10.761136 96.1541163,10.761136 L97.9571486,10.761136 C98.4592589,10.761136 98.6874909,11.0236027 98.6874909,11.5656536 L98.6874909,24.7745771 C100.034059,26.0070296 102.225086,27.0055443 103.988178,27.0055443 C107.063603,27.0055443 107.754005,25.0484554 107.754005,22.3210837 L107.754005,11.5656536 C107.754005,11.0236027 107.982237,10.761136 108.484347,10.761136 L110.287379,10.761136 C110.82943,10.761136 111.017721,11.0236027 111.017721,11.5656536 L111.017721,11.5656536 Z M132.830989,20.6264616 L132.830989,21.2826284 C132.830989,23.7817681 132.180528,26.0412644 130.639962,27.6217705 C129.373275,28.9226926 127.610183,29.732916 125.419157,29.732916 C119.890238,29.732916 116.472465,25.5448599 116.472465,20.0558817 C116.472465,14.2530847 119.622066,10.3731417 125.533273,10.3731417 C127.30207,10.3731417 129.761269,10.7211954 131.410245,11.4914782 C131.718358,11.6398289 131.872415,11.7596507 131.872415,11.9878826 C131.872415,12.0278232 131.872415,12.1019986 131.832474,12.1818798 L131.410245,13.6026236 C131.33607,13.8707962 131.142073,13.9449715 130.948076,13.9449715 C130.83396,13.9449715 130.719844,13.9050309 130.565787,13.8707962 C129.2991,13.3686859 127.530302,13.0605728 125.955502,13.0605728 C122.081265,13.0605728 120.004354,15.9077662 119.890238,19.5537715 L131.678418,19.5537715 C132.676933,19.5537715 132.830989,19.7477686 132.830989,20.6264616 L132.830989,20.6264616 Z M129.607213,21.7790329 L119.964413,21.7790329 C120.272527,24.6262263 122.081265,27.1938357 125.2651,27.1938357 C128.186469,27.1938357 129.607213,24.9343394 129.607213,22.3210837 L129.607213,21.7790329 L129.607213,21.7790329 Z M169.736094,22.3210837 L169.736094,36.4543466 C169.736094,36.9507511 169.547802,37.2189236 169.011457,37.2189236 L166.934547,37.2189236 C166.438142,37.2189236 166.16997,36.9507511 166.16997,36.4543466 L166.16997,22.9316042 C166.16997,17.9789711 165.399687,13.3686859 159.254542,13.3686859 C152.881165,13.3686859 152.224998,17.7450333 152.224998,22.8973694 L152.224998,36.4543466 C152.224998,36.9507511 152.036707,37.2189236 151.494656,37.2189236 L149.383511,37.2189236 C148.887106,37.2189236 148.653168,36.9507511 148.653168,36.4543466 L148.653168,22.5493157 C148.653168,15.0576022 150.884136,10.3731417 159.214601,10.3731417 C166.820431,10.3731417 169.736094,15.29154 169.736094,22.3210837 L169.736094,22.3210837 Z M192.091412,11.5656536 L192.091412,22.8574288 C192.091412,27.0397791 190.402496,29.732916 185.986208,29.732916 C183.760946,29.732916 181.450098,28.9226926 179.687006,27.4277734 L179.647066,28.6145795 C179.647066,29.1166897 179.378893,29.3106869 178.916724,29.3106869 L177.227807,29.3106869 C176.691462,29.3106869 176.497465,29.0767492 176.497465,28.5404041 L176.497465,11.525713 C176.497465,11.0236027 176.765638,10.761136 177.227807,10.761136 L179.03084,10.761136 C179.53295,10.761136 179.761182,11.0236027 179.761182,11.5656536 L179.761182,24.7745771 C181.10775,26.0070296 183.293071,27.0055443 185.061869,27.0055443 C188.137294,27.0055443 188.827696,25.0484554 188.827696,22.3210837 L188.827696,11.5656536 C188.827696,11.0236027 189.055927,10.761136 189.558038,10.761136 L191.36107,10.761136 C191.897415,10.761136 192.091412,11.0236027 192.091412,11.5656536 L192.091412,11.5656536 Z M202.538729,33.8410909 C202.538729,34.9537216 201.580155,35.6840638 200.5417,35.6840638 C199.503245,35.6840638 198.578905,34.9537216 198.578905,33.8410909 C198.578905,32.7284602 199.503245,31.998118 200.5417,31.998118 C201.540215,31.998118 202.538729,32.7284602 202.538729,33.8410909 L202.538729,33.8410909 Z M202.190676,11.5656536 L202.190676,28.5404041 C202.190676,29.0767492 201.962444,29.3106869 201.460333,29.3106869 L199.697242,29.3106869 C199.195131,29.3106869 198.926959,29.0767492 198.926959,28.5404041 L198.926959,11.5656536 C198.926959,11.0236027 199.195131,10.761136 199.697242,10.761136 L201.460333,10.761136 C201.962444,10.761136 202.190676,11.0236027 202.190676,11.5656536 L202.190676,11.5656536 Z M223.353482,28.9226926 C223.353482,29.1965709 223.159485,29.3106869 222.737256,29.3106869 L220.974164,29.3106869 C220.437819,29.3106869 220.163941,29.1566303 220.009884,28.6944607 L216.557876,18.2471436 C216.095707,16.8663404 215.633537,15.3657154 215.405305,14.5611978 L215.365364,14.5611978 C215.097192,15.4455965 214.635022,16.8263998 214.132912,18.3612596 L210.680904,28.7743418 C210.566788,29.1566303 210.33285,29.3106869 209.756564,29.3106869 L207.645419,29.3106869 C207.263131,29.3106869 207.069133,29.1566303 207.069133,28.8884578 C207.069133,28.8085766 207.069133,28.6944607 207.109074,28.6145795 L213.40257,11.3716564 C213.562332,10.9494273 213.824799,10.761136 214.326909,10.761136 L216.015825,10.761136 C216.438055,10.761136 216.706227,10.9094867 216.900224,11.3716564 L223.279307,28.6145795 C223.319247,28.7344012 223.353482,28.8485172 223.353482,28.9226926 L223.353482,28.9226926 Z M243.209661,20.6264616 L243.209661,21.2826284 C243.209661,23.7817681 242.5592,26.0412644 241.018634,27.6217705 C239.751947,28.9226926 237.988855,29.732916 235.797829,29.732916 C230.263204,29.732916 226.845431,25.5448599 226.845431,20.0558817 C226.845431,14.2530847 229.995032,10.3731417 235.911945,10.3731417 C237.680742,10.3731417 240.134236,10.7211954 241.788917,11.4914782 C242.09703,11.6398289 242.251087,11.7596507 242.251087,11.9878826 C242.251087,12.0278232 242.251087,12.1019986 242.211146,12.1818798 L241.788917,13.6026236 C241.714742,13.8707962 241.520745,13.9449715 241.326748,13.9449715 C241.212632,13.9449715 241.098516,13.9050309 240.944459,13.8707962 C239.677772,13.3686859 237.908974,13.0605728 236.334174,13.0605728 C232.454231,13.0605728 230.383026,15.9077662 230.263204,19.5537715 L242.05709,19.5537715 C243.055605,19.5537715 243.209661,19.7477686 243.209661,20.6264616 L243.209661,20.6264616 Z M239.985885,21.7790329 L230.343085,21.7790329 C230.651199,24.6262263 232.454231,27.1938357 235.643772,27.1938357 C238.559435,27.1938357 239.985885,24.9343394 239.985885,22.3210837 L239.985885,21.7790329 L239.985885,21.7790329 Z M257.45704,28.9626332 L257.45704,29.1566303 C257.45704,29.3848623 257.382865,29.5788594 257.148927,29.6188 C256.766638,29.6929754 256.304469,29.732916 256.036296,29.732916 C253.999326,29.732916 252.538642,28.5803447 251.620008,27.3136574 L251.580067,28.6145795 C251.580067,29.1166897 251.311895,29.3106869 250.81549,29.3106869 L249.160809,29.3106869 C248.698639,29.3106869 248.430467,29.1166897 248.430467,28.5404041 L248.430467,11.5656536 C248.430467,11.0236027 248.664404,10.761136 249.160809,10.761136 L250.963841,10.761136 C251.465951,10.761136 251.694183,11.0692491 251.694183,11.5656536 L251.694183,24.6604611 C252.698404,26.0812049 254.193323,26.9656037 255.534186,26.9656037 C255.92218,26.9656037 256.304469,26.9256631 256.652522,26.8514877 L256.766638,26.8514877 C256.99487,26.8514877 257.148927,26.9656037 257.188867,27.2337762 L257.45704,28.9626332 Z M273.205044,16.0960576 C273.205044,18.5552567 271.476187,20.0901165 269.365041,20.9745153 L266.369497,22.2412026 C264.754756,22.9316042 263.984473,23.5478304 263.984473,24.8544583 C263.984473,26.1610861 265.10281,27.2337762 267.134074,27.2337762 C268.360821,27.2337762 270.169559,26.7716066 271.168074,26.3151427 C271.28219,26.2752021 271.396306,26.2352615 271.476187,26.2352615 C271.664478,26.2352615 271.824241,26.3493775 271.898416,26.6232558 L272.320645,27.9641184 C272.360586,28.0782344 272.39482,28.1923504 272.39482,28.2722316 C272.39482,28.4262881 272.280704,28.5404041 272.052472,28.6545201 C270.323616,29.4647435 268.708875,29.732916 267.059899,29.732916 C263.67636,29.732916 260.606641,28.004059 260.606641,24.6262263 C260.606641,22.201262 262.295557,20.6664022 264.560759,19.7820034 L267.134074,18.7834887 C268.902872,18.093087 270.015502,17.2885695 270.015502,15.7879444 C270.015502,13.9849121 268.520583,12.912222 266.289616,12.912222 C264.982988,12.912222 263.140015,13.4485671 261.719271,14.0647933 C261.645096,14.0990281 261.565215,14.0990281 261.491039,14.0990281 C261.297042,14.0990281 261.142986,13.9449715 261.06881,13.7167396 L260.5667,12.3359364 C260.532465,12.2560552 260.532465,12.1818798 260.532465,12.1019986 C260.532465,11.9080015 260.646581,11.7197101 260.914754,11.6055941 C262.181441,11.0236027 264.212705,10.3731417 266.1755,10.3731417 C270.243734,10.3731417 273.205044,12.5641683 273.205044,16.0960576 L273.205044,16.0960576 Z M282.225911,33.8410909 C282.225911,34.9537216 281.267337,35.6840638 280.228882,35.6840638 C279.196132,35.6840638 278.271793,34.9537216 278.271793,33.8410909 C278.271793,32.7284602 279.196132,31.998118 280.228882,31.998118 C281.233102,31.998118 282.225911,32.7284602 282.225911,33.8410909 L282.225911,33.8410909 Z M281.883563,11.5656536 L281.883563,28.5404041 C281.883563,29.0767492 281.655331,29.3106869 281.153221,29.3106869 L279.390129,29.3106869 C278.888019,29.3106869 278.619847,29.0767492 278.619847,28.5404041 L278.619847,11.5656536 C278.619847,11.0236027 278.888019,10.761136 279.390129,10.761136 L281.153221,10.761136 C281.655331,10.761136 281.883563,11.0236027 281.883563,11.5656536 L281.883563,11.5656536 Z M299.052311,11.6797695 C299.052311,11.7197101 299.01237,11.7596507 299.01237,11.8338261 L298.704257,13.0605728 C298.630082,13.3344511 298.436085,13.4485671 298.242088,13.4485671 C298.167912,13.4485671 298.088031,13.4485671 298.013856,13.4086265 C297.397629,13.2203351 296.478996,12.9464568 295.594597,12.9464568 C294.596082,12.9464568 293.905681,13.2545699 293.483452,13.7167396 C292.907166,14.3729064 292.827285,15.3657154 292.827285,16.6324026 L292.827285,27.0055443 L297.323454,27.0055443 C297.705743,27.0055443 297.89974,27.1196603 297.89974,27.5019488 L297.89974,28.8085766 C297.89974,29.2308057 297.705743,29.3106869 297.357689,29.3106869 L292.827285,29.3106869 L292.827285,34.0350881 C292.827285,34.4573171 292.638993,34.7254897 292.250999,34.7254897 L292.096943,34.7254897 L290.214029,34.4573171 C289.717625,34.377436 289.563568,34.2233794 289.563568,33.6870343 L289.563568,29.3106869 L287.372541,29.3106869 C287.030194,29.3106869 286.876137,29.1566303 286.876137,28.7743418 L286.876137,27.5818299 C286.876137,27.0797197 286.950312,27.0055443 287.452423,27.0055443 L289.563568,27.0055443 L289.563568,16.9405157 C289.563568,14.5611978 289.643449,13.026338 290.75608,11.7938855 C291.634773,10.8353114 293.289454,10.3731417 294.93843,10.3731417 C296.250764,10.3731417 297.631567,10.6812548 298.51026,11.0692491 C298.818373,11.1833651 299.052311,11.3716564 299.052311,11.6797695 L299.052311,11.6797695 Z M319.136722,28.9226926 C319.136722,29.1566303 318.982665,29.3106869 318.640317,29.3106869 L316.523466,29.3106869 C316.061296,29.3106869 315.873005,29.1566303 315.718948,28.7344012 L310.880431,14.4470818 L305.887858,28.8085766 C305.773742,29.1566303 305.539804,29.3106869 305.157515,29.3106869 L302.624141,29.3106869 C302.316028,29.3106869 302.196206,29.1566303 302.196206,28.9226926 C302.196206,28.8485172 302.196206,28.7344012 302.241852,28.6545201 L309.111634,10.4530229 L308.113119,7.9938237 C307.308601,5.99679422 306.041914,5.15233605 303.930769,5.15233605 C303.542774,5.15233605 303.006429,5.22651143 302.5842,5.26645202 L302.430144,5.26645202 C302.08209,5.26645202 301.893799,5.11239546 301.853858,4.73010696 L301.659861,3.26942254 L301.659861,3.07542539 C301.659861,2.80725286 301.739742,2.57902092 302.08209,2.49913974 C302.664081,2.38502377 303.234661,2.34508318 303.810947,2.34508318 C307.959062,2.34508318 309.881917,3.95982416 311.570833,8.49593397 L319.062546,28.5803447 C319.096781,28.6944607 319.136722,28.8085766 319.136722,28.9226926 L319.136722,28.9226926 Z M349.936622,20.0558817 C349.936622,25.6190353 347.249191,29.732916 341.292337,29.732916 C335.575127,29.732916 332.465467,25.5049193 332.465467,20.0901165 C332.465467,14.6011384 335.112958,10.3731417 341.064105,10.3731417 C346.792727,10.3731417 349.936622,14.6353732 349.936622,20.0558817 L349.936622,20.0558817 Z M346.553083,20.0159411 C346.553083,16.4441113 345.138045,12.912222 341.104046,12.912222 C337.035812,12.912222 335.8433,16.6324026 335.8433,20.1699977 C335.8433,23.5478304 337.109987,27.1938357 341.258102,27.1938357 C345.252161,27.1938357 346.553083,23.587771 346.553083,20.0159411 L346.553083,20.0159411 Z M366.529084,37.2189236 C366.529084,37.4528614 366.454909,37.6411527 366.066914,37.7952093 C365.10834,38.1832036 363.721831,38.4513761 362.574966,38.4513761 C359.003136,38.4513761 356.966166,36.4543466 356.509702,33.1107487 C356.429821,32.4203471 356.34994,31.4218323 356.34994,30.0353233 L356.34994,29.3106869 L354.118972,29.3106869 C353.74239,29.3106869 353.588333,29.1566303 353.588333,28.7743418 L353.588333,27.5818299 C353.588333,27.0797197 353.662508,27.0055443 354.084738,27.0055443 L356.34994,27.0055443 L356.34994,11.5656536 C356.34994,11.0236027 356.583877,10.761136 357.080282,10.761136 L358.88902,10.761136 C359.425365,10.761136 359.619362,11.0692491 359.619362,11.6055941 L359.619362,27.0055443 L364.377998,27.0055443 C364.765992,27.0055443 364.920049,27.1596009 364.920049,27.5418894 L364.920049,28.8485172 C364.920049,29.2308057 364.726052,29.3106869 364.338057,29.3106869 L359.619362,29.3106869 L359.619362,31.1137192 C359.619362,34.1092634 360.349704,35.8381204 362.957254,35.8381204 C363.835947,35.8381204 364.880108,35.5699478 365.496335,35.3360101 C365.61045,35.3017753 365.724566,35.2618347 365.838682,35.2618347 C366.026974,35.2618347 366.14109,35.3759507 366.220971,35.6441232 L366.489143,36.8366351 C366.529084,36.9906917 366.529084,37.1048076 366.529084,37.2189236 L366.529084,37.2189236 Z" id="path178"></path>
                </g>
                <g id="g180" transform="translate(5.542756, 210.698065)" fill="#415E6D">
                    <path d="M22.823194,11.411597 C22.823194,11.525713 22.7832534,11.6398289 22.7490186,11.7938855 L13.2602757,36.9849859 C13.1461597,37.293099 12.912222,37.4528614 12.5698741,37.4528614 L10.532904,37.4528614 C10.1905561,37.4528614 9.95661838,37.2189236 9.84250241,36.9108105 L0.199702948,11.7539449 C0.165468157,11.5998884 0.125527567,11.4857724 0.125527567,11.3716564 C0.125527567,11.1434245 0.239643537,10.9893679 0.547756656,10.9893679 L2.81295866,10.9893679 C3.35500952,10.9893679 3.50336028,11.1434245 3.69735743,11.6398289 L6.35055373,18.8234293 L16.2957605,18.8234293 L18.8291351,11.6797695 C19.0231322,11.1034839 19.2114235,10.9893679 19.8675904,10.9893679 L22.2469084,10.9893679 C22.6691374,10.9893679 22.823194,11.1434245 22.823194,11.411597 L22.823194,11.411597 Z M15.3714212,21.4709198 L7.26918729,21.4709198 L10.4187881,30.1893799 C10.9208983,31.6101237 11.1833651,32.3804065 11.3773622,32.9966327 L11.4173028,32.9966327 C11.5713594,32.4602877 11.8395319,31.6101237 12.3017016,30.269261 L15.3714212,21.4709198 Z M43.6037121,20.4381702 C43.6037121,25.3908033 41.1787478,29.9611479 35.7297102,29.9611479 C33.5386836,29.9611479 31.233541,28.9626332 30.0067943,27.5019488 L30.0067943,28.8485172 C30.0067943,29.3848623 29.6986812,29.5389188 29.1223955,29.5389188 L27.6617111,29.5389188 C27.1653067,29.5389188 26.9313689,29.3848623 26.9313689,28.8485172 L26.9313689,3.53759507 C26.9313689,3.00125001 27.1653067,2.73307748 27.6617111,2.73307748 L29.3506275,2.73307748 C29.8527378,2.73307748 30.1950857,2.88713404 30.1950857,3.46341969 L30.1950857,12.7524596 C31.347657,11.3317158 33.384627,10.6013736 35.2675405,10.6013736 C40.8363999,10.6013736 43.6037121,15.3257748 43.6037121,20.4381702 L43.6037121,20.4381702 Z M40.1859388,20.358289 C40.1859388,16.9405157 38.7994298,13.1746887 34.8453114,13.1746887 C32.9623979,13.1746887 31.005309,14.3672006 30.1950857,15.8621198 L30.1950857,24.8886931 C31.1593656,26.2752021 33.2705111,27.3478922 35.0735434,27.3478922 C39.0676023,27.3478922 40.1859388,23.701887 40.1859388,20.358289 L40.1859388,20.358289 Z M65.5310958,20.4381702 C65.5310958,25.3908033 63.1118372,29.9611479 57.6570938,29.9611479 C55.4660672,29.9611479 53.1609246,28.9626332 51.9341779,27.5019488 L51.9341779,28.8485172 C51.9341779,29.3848623 51.6260648,29.5389188 51.0497792,29.5389188 L49.5948006,29.5389188 C49.0926903,29.5389188 48.8644584,29.3848623 48.8644584,28.8485172 L48.8644584,3.53759507 C48.8644584,3.00125001 49.0926903,2.73307748 49.5948006,2.73307748 L51.2837169,2.73307748 C51.7801214,2.73307748 52.1281751,2.88713404 52.1281751,3.46341969 L52.1281751,12.7524596 C53.2807464,11.3317158 55.3120107,10.6013736 57.1949242,10.6013736 C62.7637835,10.6013736 65.5310958,15.3257748 65.5310958,20.4381702 L65.5310958,20.4381702 Z M62.1133225,20.358289 C62.1133225,16.9405157 60.7268134,13.1746887 56.7726951,13.1746887 C54.8954874,13.1746887 52.9326927,14.3672006 52.1281751,15.8621198 L52.1281751,24.8886931 C53.0867492,26.2752021 55.1978947,27.3478922 57.000927,27.3478922 C61.0006918,27.3478922 62.1133225,23.701887 62.1133225,20.358289 L62.1133225,20.358289 Z M74.0954993,11.7938855 L74.0954993,37.6411527 C74.0954993,38.143263 73.8615616,38.2973195 73.5192137,38.2973195 L73.3252165,38.2973195 L71.4080682,38.0234412 C70.9458985,37.9492658 70.8317826,37.7952093 70.8317826,37.2588642 L70.8317826,11.7539449 C70.8317826,11.2175999 71.0600145,10.9893679 71.5221842,10.9893679 L73.4050977,10.9893679 C73.8615616,10.9893679 74.0954993,11.2575404 74.0954993,11.7938855 L74.0954993,11.7938855 Z M84.4229946,34.0693228 C84.4229946,35.1876593 83.4644205,35.9122958 82.4259651,35.9122958 C81.3875098,35.9122958 80.4688762,35.1876593 80.4688762,34.0693228 C80.4688762,32.9566921 81.3875098,32.2263499 82.4259651,32.2263499 C83.4244799,32.2263499 84.4229946,32.9566921 84.4229946,34.0693228 L84.4229946,34.0693228 Z M84.0806467,11.7938855 L84.0806467,28.768636 C84.0806467,29.3049811 83.8524148,29.5389188 83.3503045,29.5389188 L81.581507,29.5389188 C81.0851025,29.5389188 80.81693,29.3049811 80.81693,28.768636 L80.81693,11.7938855 C80.81693,11.2575404 81.0851025,10.9893679 81.581507,10.9893679 L83.3503045,10.9893679 C83.8524148,10.9893679 84.0806467,11.2575404 84.0806467,11.7938855 L84.0806467,11.7938855 Z M106.127852,20.8603993 L106.127852,21.5108603 C106.127852,24.0100001 105.471685,26.2752021 103.936825,27.8500025 C102.670138,29.1566303 100.901341,29.9611479 98.7103141,29.9611479 C93.1813953,29.9611479 89.763622,25.7730918 89.763622,20.2841137 C89.763622,14.4813166 92.9132228,10.6013736 98.8301358,10.6013736 C100.593228,10.6013736 103.052427,10.9494273 104.701402,11.7197101 C105.009516,11.8737667 105.163572,11.9878826 105.163572,12.2161146 C105.163572,12.2560552 105.163572,12.3302306 105.123632,12.4101117 L104.701402,13.8308556 C104.627227,14.0990281 104.43323,14.1789093 104.244939,14.1789093 C104.130823,14.1789093 104.011001,14.1389687 103.856944,14.0990281 C102.590257,13.5969178 100.827165,13.2945105 99.2523649,13.2945105 C95.3724219,13.2945105 93.2955113,16.1359982 93.1813953,19.7820034 L104.975281,19.7820034 C105.973796,19.7820034 106.127852,19.9760005 106.127852,20.8603993 L106.127852,20.8603993 Z M102.89837,22.0129706 L93.2612765,22.0129706 C93.5636838,24.8544583 95.3724219,27.4277734 98.5619633,27.4277734 C101.477626,27.4277734 102.89837,25.1625714 102.89837,22.5493157 L102.89837,22.0129706 L102.89837,22.0129706 Z M126.788548,11.7938855 L126.788548,37.6411527 C126.788548,38.1033224 126.594551,38.2973195 126.212263,38.2973195 L126.018266,38.2973195 L124.135352,38.0234412 C123.638948,37.9492658 123.519126,37.7210339 123.519126,37.2189236 L123.519126,27.8500025 C122.406495,29.1908651 120.29535,30.0010885 118.532258,30.0010885 C113.459803,30.0010885 110.156146,25.8130324 110.156146,20.1699977 C110.156146,15.1374834 112.535464,10.6013736 118.070088,10.6013736 C120.255409,10.6013736 122.486376,11.6398289 123.713123,13.1005134 L123.753064,11.7197101 C123.753064,11.2175999 123.981296,10.9893679 124.557581,10.9893679 L126.212263,10.9893679 C126.554611,10.9893679 126.788548,11.297481 126.788548,11.7938855 L126.788548,11.7938855 Z M123.519126,15.7480039 C122.560552,14.3672006 120.489347,13.2146293 118.680609,13.2146293 C115.342717,13.2146293 113.539684,16.2501141 113.539684,20.3183485 C113.539684,24.5463451 115.531008,27.3878328 118.988722,27.3878328 C120.871635,27.3878328 122.714608,26.1610861 123.519126,24.7004017 L123.519126,15.7480039 L123.519126,15.7480039 Z M158.621198,18.1729682 C158.621198,21.7447981 156.395937,23.6619464 153.400393,25.2766874 L149.292218,27.4620082 C147.677477,28.3064664 146.296674,29.4248029 146.296674,31.4218323 C146.296674,33.9951475 148.790107,34.9936622 150.941194,34.9936622 C152.481759,34.9936622 154.284791,34.5314925 155.819651,33.8753257 C155.973708,33.8011503 156.127764,33.7612097 156.281821,33.7612097 C156.510053,33.7612097 156.70405,33.8753257 156.818166,34.1834388 L157.394452,35.7582392 C157.434392,35.878061 157.468627,35.9921769 157.468627,36.1062929 C157.468627,36.414406 157.240395,36.6026974 156.858107,36.7567539 C154.861077,37.6012121 153.018104,37.9093252 150.752902,37.9093252 C146.718903,37.9093252 142.610728,35.5300073 142.610728,31.1137192 C142.610728,28.3464069 144.299644,26.2752021 146.833019,24.8886931 L151.711476,22.2811431 C153.59439,21.2826284 155.089309,20.0501759 155.089309,17.9047957 C155.089309,14.8693109 152.327703,13.6368584 149.714447,13.6368584 C147.911415,13.6368584 145.98856,14.1389687 144.259703,14.7494891 C144.071412,14.8293703 143.91165,14.8293703 143.797534,14.8293703 C143.529361,14.8293703 143.375305,14.7152543 143.261189,14.3672006 L142.759078,12.6383437 C142.724844,12.5242277 142.724844,12.4101117 142.724844,12.2959958 C142.724844,11.9878826 142.8789,11.7938855 143.261189,11.6797695 C145.372334,10.9893679 147.637536,10.6013736 149.714447,10.6013736 C154.438848,10.6013736 158.621198,13.1404539 158.621198,18.1729682 L158.621198,18.1729682 Z M177.484568,12.2161146 C177.484568,12.3302306 177.444628,12.4842871 177.404687,12.6383437 L177.056633,13.7167396 C176.982458,13.9849121 176.868342,14.0990281 176.674345,14.0990281 C176.594464,14.0990281 176.486053,14.0647933 176.366232,14.0248527 C175.139485,13.4828019 173.718741,13.1005134 172.06406,13.1005134 C167.955885,13.1005134 166.266968,16.4783461 166.266968,20.3982296 C166.266968,24.7004017 168.572111,27.4277734 172.223822,27.4277734 C173.718741,27.4277734 175.025369,27.0055443 176.212175,26.4634934 C176.331997,26.3893181 176.486053,26.3493775 176.560229,26.3493775 C176.788461,26.3493775 176.902577,26.5433746 176.982458,26.8115472 L177.290571,28.0439996 C177.324806,28.1581156 177.364746,28.232291 177.364746,28.3464069 C177.364746,28.5803447 177.25063,28.7344012 176.982458,28.8485172 C175.635889,29.5389188 173.718741,29.9611479 172.06406,29.9611479 C166.306909,29.9611479 162.889136,25.8872078 162.889136,20.2441731 C162.889136,14.5212572 165.804799,10.6013736 171.835828,10.6013736 C173.598919,10.6013736 175.367717,10.9494273 177.022398,11.7197101 C177.364746,11.8737667 177.484568,11.9878826 177.484568,12.2161146 L177.484568,12.2161146 Z M186.39132,34.0693228 C186.39132,35.1876593 185.432745,35.9122958 184.39429,35.9122958 C183.355835,35.9122958 182.437201,35.1876593 182.437201,34.0693228 C182.437201,32.9566921 183.355835,32.2263499 184.39429,32.2263499 C185.392805,32.2263499 186.39132,32.9566921 186.39132,34.0693228 L186.39132,34.0693228 Z M186.043266,11.7938855 L186.043266,28.768636 C186.043266,29.3049811 185.815034,29.5389188 185.312924,29.5389188 L183.549832,29.5389188 C183.047722,29.5389188 182.779549,29.3049811 182.779549,28.768636 L182.779549,11.7938855 C182.779549,11.2575404 183.047722,10.9893679 183.549832,10.9893679 L185.312924,10.9893679 C185.815034,10.9893679 186.043266,11.2575404 186.043266,11.7938855 L186.043266,11.7938855 Z M208.090471,20.8603993 L208.090471,21.5108603 C208.090471,24.0100001 207.44001,26.2752021 205.899445,27.8500025 C204.632757,29.1566303 202.869666,29.9611479 200.678639,29.9611479 C195.14972,29.9611479 191.731947,25.7730918 191.731947,20.2841137 C191.731947,14.4813166 194.881548,10.6013736 200.792755,10.6013736 C202.561553,10.6013736 205.020752,10.9494273 206.669727,11.7197101 C206.977841,11.8737667 207.131897,11.9878826 207.131897,12.2161146 C207.131897,12.2560552 207.131897,12.3302306 207.091957,12.4101117 L206.669727,13.8308556 C206.595552,14.0990281 206.401555,14.1789093 206.207558,14.1789093 C206.093442,14.1789093 205.979326,14.1389687 205.825269,14.0990281 C204.558582,13.5969178 202.789784,13.2945105 201.214984,13.2945105 C197.335041,13.2945105 195.263836,16.1359982 195.14972,19.7820034 L206.9379,19.7820034 C207.936415,19.7820034 208.090471,19.9760005 208.090471,20.8603993 L208.090471,20.8603993 Z M204.860989,22.0129706 L195.223896,22.0129706 C195.532009,24.8544583 197.335041,27.4277734 200.524582,27.4277734 C203.445951,27.4277734 204.860989,25.1625714 204.860989,22.5493157 L204.860989,22.0129706 L204.860989,22.0129706 Z M228.751168,11.7938855 L228.751168,23.0856607 C228.751168,27.2737168 227.062251,29.9611479 222.645963,29.9611479 C220.420702,29.9611479 218.115559,29.1566303 216.346762,27.6560053 L216.312527,28.8485172 C216.312527,29.3449217 216.038649,29.5389188 215.582185,29.5389188 L213.887563,29.5389188 C213.351218,29.5389188 213.15722,29.3049811 213.15722,28.768636 L213.15722,11.7539449 C213.15722,11.2575404 213.431099,10.9893679 213.887563,10.9893679 L215.696301,10.9893679 C216.192705,10.9893679 216.426643,11.2575404 216.426643,11.7938855 L216.426643,25.0085148 C217.767506,26.2352615 219.958532,27.2337762 221.721624,27.2337762 C224.797049,27.2337762 225.487451,25.2766874 225.487451,22.5493157 L225.487451,11.7938855 C225.487451,11.2575404 225.721389,10.9893679 226.217793,10.9893679 L228.026531,10.9893679 C228.562876,10.9893679 228.751168,11.2575404 228.751168,11.7938855 L228.751168,11.7938855 Z M248.573112,12.2161146 C248.573112,12.3302306 248.533171,12.4842871 248.49323,12.6383437 L248.145177,13.7167396 C248.071001,13.9849121 247.956885,14.0990281 247.762888,14.0990281 C247.688713,14.0990281 247.574597,14.0647933 247.460481,14.0248527 C246.228028,13.4828019 244.807285,13.1005134 243.152603,13.1005134 C239.044428,13.1005134 237.355512,16.4783461 237.355512,20.3982296 C237.355512,24.7004017 239.660654,27.4277734 243.312365,27.4277734 C244.807285,27.4277734 246.113912,27.0055443 247.300719,26.4634934 C247.42054,26.3893181 247.574597,26.3493775 247.648772,26.3493775 C247.877004,26.3493775 247.99112,26.5433746 248.071001,26.8115472 L248.379115,28.0439996 C248.419055,28.1581156 248.45329,28.232291 248.45329,28.3464069 C248.45329,28.5803447 248.339174,28.7344012 248.071001,28.8485172 C246.730139,29.5389188 244.807285,29.9611479 243.152603,29.9611479 C237.395452,29.9611479 233.977679,25.8872078 233.977679,20.2441731 C233.977679,14.5212572 236.893342,10.6013736 242.924371,10.6013736 C244.693169,10.6013736 246.45626,10.9494273 248.110942,11.7197101 C248.45329,11.8737667 248.573112,11.9878826 248.573112,12.2161146 L248.573112,12.2161146 Z M268.275234,20.8603993 L268.275234,21.5108603 C268.275234,24.0100001 267.619067,26.2752021 266.084207,27.8500025 C264.81752,29.1566303 263.048722,29.9611479 260.857696,29.9611479 C255.328777,29.9611479 251.911004,25.7730918 251.911004,20.2841137 C251.911004,14.4813166 255.060605,10.6013736 260.977518,10.6013736 C262.740609,10.6013736 265.199808,10.9494273 266.848784,11.7197101 C267.156897,11.8737667 267.310954,11.9878826 267.310954,12.2161146 C267.310954,12.2560552 267.310954,12.3302306 267.271013,12.4101117 L266.848784,13.8308556 C266.774609,14.0990281 266.580612,14.1789093 266.39232,14.1789093 C266.278204,14.1789093 266.158383,14.1389687 266.004326,14.0990281 C264.737639,13.5969178 262.974547,13.2945105 261.399747,13.2945105 C257.519804,13.2945105 255.442893,16.1359982 255.328777,19.7820034 L267.122663,19.7820034 C268.121177,19.7820034 268.275234,19.9760005 268.275234,20.8603993 L268.275234,20.8603993 Z M265.045752,22.0129706 L255.408658,22.0129706 C255.716771,24.8544583 257.519804,27.4277734 260.709345,27.4277734 C263.625008,27.4277734 265.045752,25.1625714 265.045752,22.5493157 L265.045752,22.0129706 L265.045752,22.0129706 Z M284.673699,16.3299953 C284.673699,18.7834887 282.944842,20.3183485 280.827991,21.2027472 L277.832446,22.4694345 C276.223411,23.1655419 275.453128,23.7760623 275.453128,25.0826902 C275.453128,26.3893181 276.565759,27.4620082 278.602729,27.4620082 C279.835182,27.4620082 281.638214,27.0055443 282.636729,26.5433746 C282.750845,26.503434 282.864961,26.4634934 282.944842,26.4634934 C283.133133,26.4634934 283.28719,26.5833152 283.367071,26.8514877 L283.7893,28.1923504 C283.823535,28.3064664 283.863475,28.4262881 283.863475,28.5004635 C283.863475,28.6545201 283.749359,28.768636 283.521127,28.882752 C281.792271,29.6929754 280.17753,29.9611479 278.528554,29.9611479 C275.145015,29.9611479 272.075296,28.232291 272.075296,24.8544583 C272.075296,22.4351997 273.764212,20.9003399 276.029414,20.0159411 L278.602729,19.0174264 C280.371527,18.321319 281.484157,17.5168014 281.484157,16.0218822 C281.484157,14.2131441 279.983532,13.1404539 277.758271,13.1404539 C276.451643,13.1404539 274.60867,13.676799 273.187926,14.2930252 C273.113751,14.32726 273.03387,14.32726 272.959694,14.32726 C272.765697,14.32726 272.611641,14.1789093 272.53176,13.9449715 L272.035355,12.5641683 C271.995414,12.4842871 271.995414,12.4101117 271.995414,12.3302306 C271.995414,12.1419392 272.10953,11.9479421 272.383409,11.8338261 C273.650096,11.2575404 275.687066,10.6013736 277.644155,10.6013736 C281.712389,10.6013736 284.673699,12.7924002 284.673699,16.3299953 L284.673699,16.3299953 Z M316.700346,11.4857724 L316.700346,12.7924002 C316.700346,13.2146293 316.506349,13.2945105 316.164001,13.2945105 L315.895828,13.2945105 C315.587715,13.2945105 315.393718,13.3686859 315.245367,13.6368584 C315.085605,13.8707962 315.05137,14.4813166 315.05137,15.3657154 L315.05137,28.8085766 C315.05137,29.3049811 314.817432,29.5389188 314.355263,29.5389188 L312.632111,29.5389188 C312.209882,29.5389188 311.901769,29.3449217 311.901769,28.882752 L311.861829,27.6217705 C310.709257,29.1566303 308.638052,29.9611479 306.715198,29.9611479 C302.338851,29.9611479 298.533083,26.3493775 298.533083,19.93606 C298.533083,15.0975428 300.878167,10.6013736 306.178853,10.6013736 C308.523936,10.6013736 311.057311,12.1419392 311.936004,13.8308556 L312.015885,13.8308556 C312.015885,12.2959958 312.820403,10.9893679 314.515025,10.9893679 L316.12406,10.9893679 C316.506349,10.9893679 316.700346,11.1034839 316.700346,11.4857724 L316.700346,11.4857724 Z M311.787653,17.2086883 C311.097252,15.29154 309.134457,13.3344511 306.675258,13.3344511 C303.913651,13.3344511 301.956562,15.942001 301.956562,20.1699977 C301.956562,24.7403423 304.181824,27.3478922 307.137427,27.3478922 C308.9804,27.3478922 310.863314,26.3094369 311.787653,24.5862857 L311.787653,17.2086883 Z M337.212691,11.7938855 L337.212691,23.0856607 C337.212691,27.2737168 335.523775,29.9611479 331.101781,29.9611479 C328.87652,29.9611479 326.571377,29.1566303 324.80258,27.6560053 L324.768345,28.8485172 C324.768345,29.3449217 324.494466,29.5389188 324.038003,29.5389188 L322.349086,29.5389188 C321.807035,29.5389188 321.618744,29.3049811 321.618744,28.768636 L321.618744,11.7539449 C321.618744,11.2575404 321.886917,10.9893679 322.349086,10.9893679 L324.152119,10.9893679 C324.654229,10.9893679 324.882461,11.2575404 324.882461,11.7938855 L324.882461,25.0085148 C326.223323,26.2352615 328.41435,27.2337762 330.183148,27.2337762 C333.252867,27.2337762 333.943269,25.2766874 333.943269,22.5493157 L333.943269,11.7938855 C333.943269,11.2575404 334.177207,10.9893679 334.673611,10.9893679 L336.482349,10.9893679 C337.018694,10.9893679 337.212691,11.2575404 337.212691,11.7938855 L337.212691,11.7938855 Z M359.140075,11.7938855 L359.140075,37.6411527 C359.140075,38.1033224 358.946078,38.2973195 358.563789,38.2973195 L358.369792,38.2973195 L356.492584,38.0234412 C355.990474,37.9492658 355.876358,37.7210339 355.876358,37.2189236 L355.876358,27.8500025 C354.758022,29.1908651 352.646876,30.0010885 350.883785,30.0010885 C345.81133,30.0010885 342.507672,25.8130324 342.507672,20.1699977 C342.507672,15.1374834 344.892696,10.6013736 350.415909,10.6013736 C352.606936,10.6013736 354.837903,11.6398289 356.06465,13.1005134 L356.10459,11.7197101 C356.10459,11.2175999 356.332822,10.9893679 356.909108,10.9893679 L358.563789,10.9893679 C358.911843,10.9893679 359.140075,11.297481 359.140075,11.7938855 L359.140075,11.7938855 Z M355.876358,15.7480039 C354.912078,14.3672006 352.840873,13.2146293 351.032135,13.2146293 C347.694243,13.2146293 345.885505,16.2501141 345.885505,20.3183485 C345.885505,24.5463451 347.88824,27.3878328 351.345954,27.3878328 C353.223162,27.3878328 355.071841,26.1610861 355.876358,24.7004017 L355.876358,15.7480039 L355.876358,15.7480039 Z M396.04518,11.411597 C396.04518,11.525713 396.010945,11.6398289 395.971004,11.7938855 L386.482261,36.9849859 C386.368145,37.293099 386.139913,37.4528614 385.79186,37.4528614 L383.760596,37.4528614 C383.406836,37.4528614 383.178604,37.2189236 383.064488,36.9108105 L373.427394,11.7539449 C373.387454,11.5998884 373.347513,11.4857724 373.347513,11.3716564 C373.347513,11.1434245 373.461629,10.9893679 373.769742,10.9893679 L376.04065,10.9893679 C376.571289,10.9893679 376.725346,11.1434245 376.925049,11.6398289 L379.566834,18.8234293 L389.517746,18.8234293 L392.056827,11.6797695 C392.245118,11.1034839 392.433409,10.9893679 393.089576,10.9893679 L395.468894,10.9893679 C395.896829,10.9893679 396.04518,11.1434245 396.04518,11.411597 L396.04518,11.411597 Z M388.593407,21.4709198 L380.491173,21.4709198 L383.64648,30.1893799 C384.137178,31.6101237 384.411057,32.3804065 384.605054,32.9966327 L384.639288,32.9966327 C384.793345,32.4602877 385.061518,31.6101237 385.523687,30.269261 L388.593407,21.4709198 Z M409.219868,29.1908651 L409.219868,29.3848623 C409.219868,29.6130942 409.139987,29.8070914 408.911755,29.847032 C408.529467,29.9212073 408.067297,29.9611479 407.799125,29.9611479 C405.762155,29.9611479 404.30147,28.8085766 403.382837,27.5418894 L403.342896,28.8485172 C403.342896,29.3449217 403.074723,29.5389188 402.578319,29.5389188 L400.923637,29.5389188 C400.461468,29.5389188 400.199001,29.3449217 400.199001,28.768636 L400.199001,11.7938855 C400.199001,11.2575404 400.427233,10.9893679 400.923637,10.9893679 L402.72667,10.9893679 C403.22878,10.9893679 403.457012,11.297481 403.457012,11.7938855 L403.457012,24.8886931 C404.455527,26.3094369 405.956152,27.1938357 407.297014,27.1938357 C407.685009,27.1938357 408.067297,27.1538951 408.409645,27.0797197 L408.529467,27.0797197 C408.757699,27.0797197 408.911755,27.1938357 408.94599,27.4620082 L409.219868,29.1908651 L409.219868,29.1908651 Z M423.77536,11.9080015 C423.77536,11.9479421 423.73542,11.9878826 423.73542,12.062058 L423.427307,13.2945105 C423.347426,13.562683 423.159134,13.676799 422.970843,13.676799 C422.890962,13.676799 422.816786,13.676799 422.742611,13.6368584 C422.126385,13.4485671 421.202045,13.1746887 420.317647,13.1746887 C419.319132,13.1746887 418.62873,13.4828019 418.206501,13.9449715 C417.630215,14.6011384 417.55604,15.5996531 417.55604,16.8663404 L417.55604,27.2337762 L422.046503,27.2337762 C422.428792,27.2337762 422.622789,27.3478922 422.622789,27.7358865 L422.622789,29.0368086 C422.622789,29.4647435 422.428792,29.5389188 422.086444,29.5389188 L417.55604,29.5389188 L417.55604,34.26332 C417.55604,34.6855491 417.356337,34.9537216 416.979754,34.9537216 L416.825698,34.9537216 L414.942784,34.6855491 C414.44638,34.6056679 414.286617,34.4573171 414.286617,33.9152663 L414.286617,29.5389188 L412.095591,29.5389188 C411.753243,29.5389188 411.599186,29.3848623 411.599186,29.0025738 L411.599186,27.8100619 C411.599186,27.3136574 411.679068,27.2337762 412.175472,27.2337762 L414.286617,27.2337762 L414.286617,17.1744535 C414.286617,14.7894297 414.360793,13.2545699 415.479129,12.0221174 C416.363528,11.0635433 418.012504,10.6013736 419.667185,10.6013736 C420.968108,10.6013736 422.354617,10.9094867 423.239015,11.297481 C423.547128,11.411597 423.77536,11.5998884 423.77536,11.9080015 L423.77536,11.9080015 Z M439.443483,16.3299953 C439.443483,18.7834887 437.714626,20.3183485 435.603481,21.2027472 L432.607936,22.4694345 C430.998901,23.1655419 430.228618,23.7760623 430.228618,25.0826902 C430.228618,26.3893181 431.341249,27.4620082 433.378219,27.4620082 C434.604966,27.4620082 436.413704,27.0055443 437.406513,26.5433746 C437.520629,26.503434 437.640451,26.4634934 437.714626,26.4634934 C437.908623,26.4634934 438.06268,26.5833152 438.136855,26.8514877 L438.56479,28.1923504 C438.604731,28.3064664 438.638965,28.4262881 438.638965,28.5004635 C438.638965,28.6545201 438.52485,28.768636 438.290912,28.882752 C436.562055,29.6929754 434.95302,29.9611479 433.304044,29.9611479 C429.920505,29.9611479 426.84508,28.232291 426.84508,24.8544583 C426.84508,22.4351997 428.533996,20.9003399 430.799198,20.0159411 L433.378219,19.0174264 C435.141311,18.321319 436.253942,17.5168014 436.253942,16.0218822 C436.253942,14.2131441 434.759023,13.1404539 432.533761,13.1404539 C431.227133,13.1404539 429.378455,13.676799 427.963416,14.2930252 C427.883535,14.32726 427.803654,14.32726 427.729479,14.32726 C427.541187,14.32726 427.387131,14.1789093 427.312955,13.9449715 L426.810845,12.5641683 C426.770905,12.4842871 426.770905,12.4101117 426.770905,12.3302306 C426.770905,12.1419392 426.885021,11.9479421 427.153193,11.8338261 C428.41988,11.2575404 430.45685,10.6013736 432.413939,10.6013736 C436.487879,10.6013736 439.443483,12.7924002 439.443483,16.3299953 L439.443483,16.3299953 Z" id="path182"></path>
                </g>
            </g>
        </g>
    </g>
</svg>